<svg fill="none" height="9" viewBox="0 0 11 9" width="11" xmlns="http://www.w3.org/2000/svg" xmlns:xlink="http://www.w3.org/1999/xlink"><clipPath id="a"><path d="m0 0h11v9h-11z"/></clipPath><g clip-path="url(#a)" fill="#654900"><path d="m10.89 7.37002-1.90993 1.56c-.04713.03481-.10302.056-.16137.06128-.05836.00527-.11707-.00558-.16968-.03137s-.09709-.06551-.12866-.11487c-.03158-.04936-.04894-.10646-.05029-.16504v-3.06c-.00061-.05936.01581-.11762.04736-.16791.03155-.05028.0769-.09044.13061-.11572.05372-.02528.11351-.03459.17237-.02685.05885.00773.11431.03219.15966.07049l1.90993 1.56c.0556.05776.0867.13479.0867.21496 0 .08018-.0311.15727-.0867.21503z"/><path d="m-.00004086 1.83997c-.00062184-.25352.09516976-.49776.26782186-.68341.172653-.185647.409331-.298843.662232-.316589h1.229977c.65702-.000368 1.29987.190809 1.84998.550049-.42602.48364-.7431 1.05314-.92993 1.66998-.27011-.18784-.59105-.28897-.92005-.28998h-1.229977c-.241259-.01637-.468416-.11966-.639404-.29064-.170989-.17099-.2742778-.39815-.29064986-.63941zm9.41003086 4.37006h-2.11999c-.33072.00004-.65293-.10506-.92005-.30005-.18667.6199-.50369 1.1927-.92993 1.67999.55202.3551 1.19363.5459 1.84998.55005h2.11999c.21185-.05757.3989-.18327.53223-.35767.13328-.17439.20558-.38783.20558-.60736 0-.21952-.0723-.43296-.20558-.60736-.13333-.1744-.32038-.30003-.53223-.3576z"/><path d="m2.15999 8.14002h-1.22998c-.211843-.05757-.398897-.18327-.532227-.35767-.133329-.1744-.205566-.38783-.205566-.60736 0-.21952.072237-.43296.205566-.60736.13333-.1744.320384-.30003.532227-.3576h1.22998c.44208-.0105.86217-.19488 1.16919-.51313s.47621-.74472.47082-1.18689c-.00928-.46752.07364-.93232.24402-1.36779.17038-.43548.42493-.83314.74903-1.17023.32409-.3371.71132-.607 1.13977-.79437.42844-.187371.88964-.288508 1.35718-.29761h2.11999c.21184.05757.3989.18327.53223.35767.13328.17439.20558.38777.20558.6073 0 .21952-.0723.43296-.20558.60736-.13333.1744-.32039.30009-.53223.35766h-2.11999c-.44119.0105-.86023.19519-1.16565.51374-.30543.31854-.47241.74504-.46436 1.18627.01607.94516-.34338 1.85808-.99951 2.53858s-1.55537 1.07303-2.50049 1.09143z"/><path d="m10.89 2.11-1.90993 1.56c-.04535.0383-.10081.06282-.15966.07056-.05886.00774-.11865-.00164-.17237-.02692-.05371-.02527-.09906-.06544-.13061-.11572s-.04797-.10855-.04736-.16791v-3.119994c-.00061-.059359.01581-.117625.04736-.167908.03155-.0502828.0769-.0904462.13061-.1157225.05372-.02527629.11351-.03465484.17237-.0269165.05885.00773835.11431.0322553.15966.0705566l1.90993 1.5599944c.0355.02908.0643.06567.084.10718s.0298.08688.0298.13281c0 .04594-.0101.09131-.0298.13282-.0197.0415-.0485.0781-.084.10717z"/></g></svg>